#!OML:ASF X:\für Bonn\!DataBase\2005_08_12_Daniel\c3d\Daniel.ASF
:FULLY-SPECIFIED
:DEGREES
88
root 4.99836 13.9196 -3.89239 -1629.31 174.365 182.001
lowerback 69.571 -2.834 0.152394
upperback 12.275 -3.68778 -5.93206
thorax -7.96633 -0.936571 -5.24783
lowerneck 9.243 9.62481 1.97904
upperneck 7.54791 13.0043 -8.06396
head 1.59019 6.42008 -3.06689
rclavicle -1.90833e-014 -6.08281e-014
rhumerus -376.098 18.9894 285.129
rradius 56.4021
rwrist -1.63851
rhand -19.9094 740.694
rfingers 7.12502
rthumb 6.42732 710.811
lclavicle -1.90833e-014 -6.08281e-014
lhumerus -539.175 189.996 -475.103
lradius 51.2033
lwrist -8.966
lhand -18.859 -728.101
lfingers 7.12502
lthumb 7.44127 21.7486
rfemur -592.503 -155.711 573.052
rtibia 78.0075
rfoot -9.94869 12.5903
rtoes 22.2457
lfemur -38.5937 3.70883 -12.1692
ltibia 103.456
lfoot -14.0598 -17.004
ltoes 0.883588
89
root 5.12299 13.8425 -3.8626 -1629.39 175.476 181.832
lowerback 70.1557 -2.53459 -0.209192
upperback 12.2915 -3.68468 -6.08857
thorax -7.91747 -0.934926 -5.29386
lowerneck 9.35794 9.68759 1.94694
upperneck 7.24815 13.0584 -8.11009
head 1.47658 6.45382 -3.09086
rclavicle -1.27222e-014 -3.06128e-014
rhumerus -375.718 19.2968 285.604
rradius 57.0965
rwrist -2.15174
rhand -19.7436 740.589
rfingers 7.12502
rthumb 6.58734 710.712
lclavicle -1.27222e-014 -3.06128e-014
lhumerus -538.237 189.787 -476.052
lradius 50.8677
lwrist -9.1125
lhand -18.8891 -728.126
lfingers 7.12502
lthumb 7.41218 21.7244
rfemur -593.038 -155.204 573.61
rtibia 78.9
rfoot -10.6503 12.2816
rtoes 22.3156
lfemur -39.422 3.28885 -11.9164
ltibia 103.895
lfoot -14.1219 -17.3794
ltoes 0.795821
90
root 5.24697 13.7596 -3.831 -1629.47 176.535 181.652
lowerback 70.6698 -2.25094 -0.546646
upperback 12.3404 -3.68229 -6.22864
thorax -7.83069 -0.935038 -5.33068
lowerneck 9.41295 9.74131 1.89248
upperneck 6.98458 13.1018 -8.14185
head 1.38177 6.48001 -3.10219
rclavicle -1.59028e-015 3.97569e-016
rhumerus -375.331 19.5359 286.111
rradius 57.6944
rwrist -2.54037
rhand -19.5065 740.583
rfingers 7.12502
rthumb 6.8162 710.713
lclavicle -1.59028e-015 3.97569e-016
lhumerus -537.272 189.543 -477.009
lradius 50.4819
lwrist -9.25934
lhand -18.9054 -728.269
lfingers 7.12502
lthumb 7.39646 21.5816
rfemur -593.577 -154.704 574.151
rtibia 79.8184
rfoot -11.4476 12.0094
rtoes 22.3164
lfemur -40.2502 2.86093 -11.6364
ltibia 104.376
lfoot -13.9517 -18.0613
ltoes 1.04989
91
root 5.36926 13.6739 -3.79933 -1629.56 177.501 181.439
lowerback 71.1799 -2.03227 -0.832049
upperback 12.3804 -3.7176 -6.37243
thorax -7.75764 -0.950094 -5.37773
lowerneck 9.42453 9.79299 1.86883
upperneck 6.75338 13.1466 -8.11949
head 1.30303 6.50587 -3.0975
rclavicle -3.10104e-014 -8.74653e-015
rhumerus -375.079 19.7326 286.565
rradius 58.3667
rwrist -2.83595
rhand -19.291 740.513
rfingers 7.12502
rthumb 7.02421 710.65
lclavicle -3.10104e-014 -8.74653e-015
lhumerus -536.367 189.316 -478.015
lradius 50.1072
lwrist -9.31723
lhand -18.8797 -728.37
lfingers 7.12502
lthumb 7.4213 21.4795
rfemur -594.119 -154.143 574.701
rtibia 80.7627
rfoot -12.3584 11.7608
rtoes 21.98
lfemur -41.0792 2.37844 -11.2872
ltibia 104.901
lfoot -13.5747 -19.1439
ltoes 1.625
92
root 5.49087 13.5813 -3.76712 -1629.64 178.413 181.179
lowerback 71.6369 -1.84312 -1.07312
upperback 12.4447 -3.74966 -6.48677
thorax -7.65554 -0.966375 -5.41003
lowerneck 9.42748 9.83381 1.87768
upperneck 6.52175 13.1823 -8.13351
head 1.23032 6.52815 -3.1101
rclavicle 2.54444e-014 -3.97569e-016
rhumerus -374.842 19.8166 287.036
rradius 59.0048
rwrist -3.01357
rhand -19.0202 740.537
rfingers 7.12502
rthumb 7.28565 710.683
lclavicle 2.54444e-014 -3.97569e-016
lhumerus -535.476 189.011 -478.973
lradius 49.6933
lwrist -9.37827
lhand -18.8366 -728.511
lfingers 7.12502
lthumb 7.46287 21.3376
rfemur -594.663 -153.605 575.263
rtibia 81.7391
rfoot -13.336 11.5607
rtoes 21.6407
lfemur -41.9075 1.87335 -10.8559
ltibia 105.489
lfoot -12.9411 -20.4882
ltoes 2.33758
93
root 5.6126 13.483 -3.73769 -1629.7 179.294 180.904
lowerback 72.0709 -1.67504 -1.28504
upperback 12.5013 -3.78767 -6.60388
thorax -7.56433 -0.985068 -5.45518
lowerneck 9.39989 9.8505 1.98083
upperneck 6.31127 13.1983 -8.16209
head 1.17631 6.54184 -3.14114
rclavicle -1.74931e-014 -1.07344e-014
rhumerus -374.634 19.804 287.48
rradius 59.5827
rwrist -3.08876
rhand -18.7951 740.567
rfingers 7.12502
rthumb 7.50296 710.72
lclavicle -1.74931e-014 -1.07344e-014
lhumerus -534.612 188.685 -479.927
lradius 49.2626
lwrist -9.38161
lhand -18.7674 -728.606
lfingers 7.12502
lthumb 7.52965 21.2397
rfemur -595.272 -153.097 575.822
rtibia 82.7614
rfoot -14.285 11.403
rtoes 21.2307
lfemur -42.7299 1.3906 -10.4106
ltibia 106.138
lfoot -12.205 -21.9867
ltoes 2.99219
94
root 5.73521 13.3772 -3.71198 -1629.77 180.154 180.627
lowerback 72.5329 -1.51889 -1.50287
upperback 12.532 -3.84721 -6.71561
thorax -7.50051 -1.01404 -5.48407
lowerneck 9.32453 9.8827 2.0613
upperneck 6.14675 13.2346 -8.13719
head 1.14093 6.56264 -3.14638
rclavicle -3.49861e-014 3.65764e-014
rhumerus -374.437 19.7811 287.894
rradius 60.1347
rwrist -3.06679
rhand -18.6293 740.564
rfingers 7.12502
rthumb 7.66293 710.723
lclavicle -3.49861e-014 3.65764e-014
lhumerus -533.769 188.265 -480.857
lradius 48.7517
lwrist -9.38182
lhand -18.6844 -728.694
lfingers 7.12502
lthumb 7.60981 21.1487
rfemur -595.935 -152.629 576.364
rtibia 83.8337
rfoot -15.2684 11.2751
rtoes 20.9827
lfemur -43.4957 0.957899 -9.97065
ltibia 106.849
lfoot -11.2791 -23.6085
ltoes 3.8124
